Coordinates
version=1
nRows=13
nColumns=38
inDegrees=no

Units are S.I. units (second, meters, Newtons, ...)
If the header above contains a line with 'inDegrees', this indicates whether rotational values are in degrees (yes) or radians (no).

endheader
time	pelvis_tilt	pelvis_list	pelvis_rotation	pelvis_tx	pelvis_ty	pelvis_tz	hip_flexion_r	hip_adduction_r	hip_rotation_r	knee_angle_r	ankle_angle_r	subtalar_angle_r	mtp_angle_r	hip_flexion_l	hip_adduction_l	hip_rotation_l	knee_angle_l	ankle_angle_l	subtalar_angle_l	mtp_angle_l	lumbar_extension	lumbar_bending	lumbar_rotation	arm_flex_r	arm_add_r	arm_rot_r	elbow_flex_r	pro_sup_r	wrist_flex_r	wrist_dev_r	arm_flex_l	arm_add_l	arm_rot_l	elbow_flex_l	pro_sup_l	wrist_flex_l	wrist_dev_l
11.27	0.19347	1.14932	1.43549	0.646418	1.29596	0.99062	0.785792	0.0178046	0.12	0.550933	-0.238403	0	0	0.194561	-0.120033	0.0105753	0.371655	-0.139072	0	0	-0.148582	0.0555984	0.114343	-0.152844	-0.223999	-0.263833	1.26703	1.52213	0	0	-0.000824212	-0.0562659	-0.204222	1.16649	1.5708	0	0
11.28	0.193476	1.15024	1.43662	0.647816	1.29866	0.991168	0.781256	0.0182823	0.116825	0.549514	-0.236004	0	0	0.204539	-0.120549	0.0138595	0.400566	-0.134937	0	0	-0.149467	0.0562881	0.11373	-0.156141	-0.219198	-0.264213	1.26605	1.52696	0	0	-0.00281533	-0.0562976	-0.209885	1.1617	1.5708	0	0
11.29	0.19421	1.15091	1.4372	0.649171	1.30131	0.991689	0.776909	0.0189806	0.113704	0.547981	-0.233717	0	0	0.215787	-0.121223	0.0175542	0.431629	-0.130494	0	0	-0.14997	0.0572989	0.113227	-0.159266	-0.214848	-0.263888	1.26461	1.53058	0	0	-0.0046483	-0.0560047	-0.21562	1.15689	1.5708	0	0
11.3	0.194931	1.1514	1.4378	0.650453	1.3039	0.992193	0.772784	0.0196286	0.11101	0.546517	-0.231517	0	0	0.22757	-0.121726	0.0221271	0.463535	-0.126121	0	0	-0.150305	0.0583066	0.112807	-0.162352	-0.210744	-0.263684	1.26307	1.53388	0	0	-0.00634061	-0.0553862	-0.221466	1.1522	1.5708	0	0
11.31	0.195123	1.15188	1.43876	0.651679	1.30641	0.992695	0.76872	0.0202285	0.108925	0.545131	-0.229344	0	0	0.24006	-0.121652	0.0265738	0.496563	-0.122173	0	0	-0.150637	0.0590705	0.112632	-0.165365	-0.206835	-0.263894	1.26156	1.53714	0	0	-0.00777888	-0.0545374	-0.227222	1.1477	1.5708	0	0
11.32	0.194943	1.15241	1.43993	0.652858	1.30882	0.993183	0.764723	0.0208017	0.106957	0.544058	-0.226854	0	0	0.253771	-0.121072	0.029654	0.531358	-0.118608	0	0	-0.151027	0.0595395	0.112564	-0.168217	-0.203221	-0.264412	1.26008	1.54098	0	0	-0.00910057	-0.0536504	-0.23285	1.14367	1.5708	0	0
11.33	0.194165	1.15312	1.4415	0.653993	1.31116	0.993677	0.760848	0.0209614	0.10465	0.543242	-0.2244	0	0	0.267555	-0.120109	0.0324303	0.566691	-0.115325	0	0	-0.15161	0.0596501	0.112736	-0.171192	-0.200017	-0.26509	1.25893	1.54692	0	0	-0.0100752	-0.0529653	-0.237854	1.13965	1.5708	0	0
11.34	0.193032	1.15342	1.44339	0.655063	1.31336	0.994079	0.757935	0.0206844	0.102761	0.542482	-0.221945	0	0	0.282808	-0.118814	0.0363203	0.605201	-0.111379	0	0	-0.151725	0.0598201	0.113078	-0.174148	-0.196893	-0.266086	1.25804	1.55357	0	0	-0.0108238	-0.0524301	-0.242215	1.13535	1.5708	0	0
11.35	0.190907	1.1542	1.44535	0.656146	1.31552	0.99449	0.754783	0.020528	0.101832	0.541926	-0.21996	0	0	0.296956	-0.116742	0.0395891	0.641604	-0.107951	0	0	-0.152697	0.0594609	0.113885	-0.17679	-0.194299	-0.266398	1.25737	1.55817	0	0	-0.0118568	-0.0527796	-0.245247	1.13167	1.5708	0	0
11.36	0.187772	1.15569	1.44778	0.657166	1.31764	0.994939	0.751021	0.0202754	0.100618	0.541354	-0.218375	0	0	0.310074	-0.1142	0.0408065	0.676242	-0.105492	0	0	-0.154428	0.0585706	0.114894	-0.179062	-0.192092	-0.26627	1.25635	1.56113	0	0	-0.0127829	-0.0532357	-0.247811	1.12786	1.5708	0	0
11.37	0.183841	1.15744	1.45077	0.658095	1.3197	0.995405	0.747204	0.0196374	0.0996432	0.540899	-0.216978	0	0	0.32286	-0.111429	0.0403902	0.709402	-0.103674	0	0	-0.156731	0.0573775	0.115731	-0.181091	-0.190028	-0.265893	1.25537	1.56327	0	0	-0.0138697	-0.0535574	-0.250467	1.12429	1.5708	0	0
11.38	0.179934	1.15919	1.45349	0.659001	1.32169	0.995847	0.743435	0.01913	0.0994348	0.540397	-0.215465	0	0	0.335674	-0.108902	0.0388372	0.741296	-0.101958	0	0	-0.159401	0.0561426	0.116502	-0.182921	-0.187812	-0.265391	1.25464	1.56459	0	0	-0.0154063	-0.0538395	-0.25335	1.12162	1.5708	0	0
11.39	0.176382	1.16071	1.45561	0.659915	1.32359	0.996208	0.740093	0.0189932	0.0991666	0.540204	-0.213799	0	0	0.348615	-0.10668	0.0371763	0.772008	-0.0990354	0	0	-0.161739	0.0548653	0.117561	-0.184799	-0.185607	-0.264782	1.25394	1.56511	0	0	-0.0170804	-0.0539816	-0.256475	1.11946	1.5708	0	0
